<svg width="36" height="18" viewBox="0 0 36 18" fill="none" xmlns="http://www.w3.org/2000/svg">
<path d="M11 9.5C13.4853 9.5 15.5 7.48528 15.5 5C15.5 2.51472 13.4853 0.5 11 0.5C8.51472 0.5 6.5 2.51472 6.5 5C6.5 7.48528 8.51472 9.5 11 9.5Z" fill="#1A1C1A"/>
<path d="M26.1665 9C28.6518 9 30.6665 6.98528 30.6665 4.5C30.6665 2.01472 28.6518 0 26.1665 0C23.6812 0 21.6665 2.01472 21.6665 4.5C21.6665 6.98528 23.6812 9 26.1665 9Z" fill="#1A1C1A"/>
<path d="M1 18C1 12.5 5.5 10 11 10C16.5 10 21 12.5 21 18H1Z" fill="#1A1C1A"/>
<path d="M16 18C16 12.5 20.5 10 26 10C31.5 10 36 12.5 36 18H16Z" fill="#1A1C1A"/>
</svg>
